# This file uses centimeters as units for non-parametric coordinates.

mtllib SM_caisse.mtl
g default
v -6.172441 0.079324 -0.000000
v -0.000000 0.079324 -0.000000
v -6.172441 6.251764 -0.000000
v -0.000000 6.251764 -0.000000
v -6.172441 6.251764 -6.172440
v -0.000000 6.251764 -6.172440
v -6.172441 0.079324 -6.172440
v -0.000000 0.079324 -6.172440
v -5.588345 0.663419 -0.000000
v -0.584095 0.663419 -0.000000
v -0.584095 5.667669 -0.000000
v -5.588345 5.667669 -0.000000
v -5.588345 6.251764 -0.584092
v -0.584095 6.251764 -0.584092
v -0.584095 6.251764 -5.588345
v -5.588345 6.251764 -5.588345
v -5.588345 5.667669 -6.172440
v -0.584095 5.667669 -6.172440
v -0.584095 0.663419 -6.172440
v -5.588345 0.663419 -6.172440
v -5.588345 0.079324 -5.588345
v -0.584095 0.079324 -5.588345
v -0.584095 0.079324 -0.584092
v -5.588345 0.079324 -0.584092
v -0.000000 0.663419 -5.588345
v -0.000000 0.663419 -0.584092
v -0.000000 5.667669 -5.588345
v -0.000000 5.667669 -0.584092
v -6.172441 0.663419 -5.588345
v -6.172441 0.663419 -0.584092
v -6.172441 5.667669 -0.584092
v -6.172441 5.667669 -5.588345
v -5.588345 0.663419 -0.255180
v -0.584095 0.663419 -0.255180
v -0.584095 5.667669 -0.255180
v -5.588345 5.667669 -0.255180
v -5.588345 5.996583 -0.584092
v -0.584095 5.996583 -0.584092
v -0.584095 5.996583 -5.588345
v -5.588345 5.996583 -5.588345
v -5.588345 5.667669 -5.917257
v -0.584095 5.667669 -5.917257
v -0.584095 0.663419 -5.917257
v -5.588345 0.663419 -5.917257
v -5.588345 0.334506 -5.588345
v -0.584095 0.334506 -5.588345
v -0.584095 0.334506 -0.584092
v -5.588345 0.334506 -0.584092
v -0.255182 0.663419 -5.588345
v -0.255182 0.663419 -0.584092
v -0.255182 5.667669 -5.588345
v -0.255182 5.667669 -0.584092
v -5.917258 0.663419 -5.588345
v -5.917258 0.663419 -0.584092
v -5.917258 5.667669 -0.584092
v -5.917258 5.667669 -5.588345
vt 0.273795 0.076371
vt 0.630767 0.077215
vt 0.630289 0.434256
vt 0.273320 0.433413
vt 0.077617 0.579711
vt 0.434568 0.580468
vt 0.434206 0.937496
vt 0.077220 0.936770
vt 0.273769 0.076397
vt 0.630740 0.077189
vt 0.630315 0.434229
vt 0.273346 0.433439
vt 0.077655 0.579693
vt 0.434627 0.580498
vt 0.434189 0.937539
vt 0.077219 0.936736
vt 0.580774 0.931913
vt 0.581556 0.574941
vt 0.938596 0.575356
vt 0.937817 0.932326
vt 0.580694 0.931795
vt 0.581675 0.574845
vt 0.938703 0.575431
vt 0.937752 0.932417
vt 0.525937 0.519677
vt 0.525789 0.987590
vt 0.642634 0.064293
vt 0.260900 0.064518
vt 0.993576 0.987474
vt 0.643185 0.446110
vt 0.993699 0.519764
vt 0.261451 0.446334
vt 0.446430 0.567540
vt 0.064719 0.567861
vt 0.993583 0.519679
vt 0.447120 0.949332
vt 0.993485 0.987592
vt 0.065356 0.949695
vt 0.642606 0.064265
vt 0.260872 0.064546
vt 0.525794 0.519795
vt 0.643213 0.446082
vt 0.525672 0.987441
vt 0.261479 0.446363
vt 0.446493 0.567575
vt 0.064759 0.567842
vt 0.447086 0.949392
vt 0.065353 0.949659
vt 0.568632 0.563076
vt 0.568924 0.944810
vt 0.950449 0.562459
vt 0.950740 0.944192
vt 0.568754 0.562975
vt 0.568836 0.944686
vt 0.950546 0.562525
vt 0.950670 0.944289
vt 0.685991 0.489217
vt 0.489776 0.524740
vt 0.489863 0.992529
vt 0.685922 0.021463
vt 0.021981 0.524704
vt 0.218196 0.489198
vt 0.218127 0.021376
vt 0.022068 0.992492
vt 0.489907 0.992458
vt 0.685888 0.021429
vt 0.218093 0.021410
vt 0.022079 0.992537
vt 0.685957 0.489252
vt 0.489701 0.524696
vt 0.021937 0.524725
vt 0.218162 0.489163
vn 0.000000 0.000000 1.000000
vn 0.000000 0.000000 1.000000
vn 0.000000 0.000000 1.000000
vn 0.000000 0.000000 1.000000
vn 0.000000 1.000000 0.000000
vn 0.000000 1.000000 0.000000
vn 0.000000 1.000000 0.000000
vn 0.000000 1.000000 0.000000
vn 0.000000 0.000000 -1.000000
vn 0.000000 0.000000 -1.000000
vn 0.000000 0.000000 -1.000000
vn 0.000000 0.000000 -1.000000
vn 0.000000 -1.000000 0.000000
vn 0.000000 -1.000000 0.000000
vn 0.000000 -1.000000 0.000000
vn 0.000000 -1.000000 0.000000
vn 1.000000 0.000000 0.000000
vn 1.000000 0.000000 0.000000
vn 1.000000 0.000000 0.000000
vn 1.000000 0.000000 0.000000
vn -1.000000 0.000000 0.000000
vn -1.000000 0.000000 0.000000
vn -1.000000 0.000000 0.000000
vn -1.000000 0.000000 0.000000
vn 0.000000 0.000000 1.000000
vn 0.000000 0.000000 1.000000
vn 0.000000 0.000000 1.000000
vn 0.000000 0.000000 1.000000
vn 0.000000 0.000000 1.000000
vn 0.000000 0.000000 1.000000
vn 0.000000 0.000000 1.000000
vn 0.000000 0.000000 1.000000
vn 0.000000 0.000000 1.000000
vn 0.000000 0.000000 1.000000
vn 0.000000 0.000000 1.000000
vn 0.000000 0.000000 1.000000
vn -0.000000 0.000000 1.000000
vn -0.000000 0.000000 1.000000
vn -0.000000 0.000000 1.000000
vn -0.000000 0.000000 1.000000
vn 0.000000 1.000000 -0.000000
vn 0.000000 1.000000 -0.000000
vn 0.000000 1.000000 -0.000000
vn 0.000000 1.000000 -0.000000
vn 0.000000 1.000000 0.000000
vn 0.000000 1.000000 0.000000
vn 0.000000 1.000000 0.000000
vn 0.000000 1.000000 0.000000
vn 0.000000 1.000000 0.000000
vn 0.000000 1.000000 0.000000
vn 0.000000 0.000000 -1.000000
vn -0.000000 0.000000 -1.000000
vn -0.000000 0.000000 -1.000000
vn 0.000000 0.000000 -1.000000
vn -0.000000 0.000000 -1.000000
vn -0.000000 0.000000 -1.000000
vn 0.000000 0.000000 -1.000000
vn 0.000000 0.000000 -1.000000
vn 0.000000 -1.000000 -0.000000
vn 0.000000 -1.000000 -0.000000
vn 0.000000 -1.000000 -0.000000
vn 0.000000 -1.000000 -0.000000
vn 0.000000 -1.000000 0.000000
vn 0.000000 -1.000000 0.000000
vn 0.000000 -1.000000 0.000000
vn 0.000000 -1.000000 0.000000
vn 1.000000 -0.000000 0.000000
vn 1.000000 -0.000000 0.000000
vn 1.000000 -0.000000 0.000000
vn 1.000000 -0.000000 0.000000
vn 1.000000 0.000000 0.000000
vn 1.000000 0.000000 0.000000
vn 1.000000 0.000000 0.000000
vn 1.000000 0.000000 0.000000
vn -1.000000 0.000000 0.000000
vn -1.000000 0.000000 0.000000
vn -1.000000 0.000000 0.000000
vn -1.000000 0.000000 0.000000
vn -1.000000 -0.000000 0.000000
vn -1.000000 -0.000000 0.000000
vn -1.000000 -0.000000 0.000000
vn -1.000000 -0.000000 0.000000
vn 0.000000 1.000000 0.000000
vn 0.000000 1.000000 0.000000
vn 0.000000 1.000000 0.000000
vn 0.000000 1.000000 0.000000
vn -1.000000 0.000000 0.000000
vn -1.000000 0.000000 0.000000
vn -1.000000 0.000000 0.000000
vn -1.000000 0.000000 0.000000
vn 0.000000 -1.000000 0.000000
vn 0.000000 -1.000000 0.000000
vn 0.000000 -1.000000 0.000000
vn 0.000000 -1.000000 0.000000
vn 1.000000 0.000000 0.000000
vn 1.000000 0.000000 0.000000
vn 1.000000 0.000000 0.000000
vn 1.000000 0.000000 0.000000
vn 0.000000 0.000000 -1.000000
vn 0.000000 0.000000 -1.000000
vn 0.000000 0.000000 -1.000000
vn 0.000000 0.000000 -1.000000
vn -1.000000 0.000000 0.000000
vn -1.000000 0.000000 0.000000
vn -1.000000 0.000000 0.000000
vn -1.000000 0.000000 0.000000
vn 0.000000 0.000000 1.000000
vn 0.000000 0.000000 1.000000
vn 0.000000 0.000000 1.000000
vn 0.000000 0.000000 1.000000
vn 1.000000 0.000000 0.000000
vn 1.000000 0.000000 0.000000
vn 1.000000 0.000000 0.000000
vn 1.000000 0.000000 0.000000
vn 0.000000 -1.000000 0.000000
vn 0.000000 -1.000000 0.000000
vn 0.000000 -1.000000 0.000000
vn 0.000000 -1.000000 0.000000
vn -1.000000 0.000000 0.000000
vn -1.000000 0.000000 0.000000
vn -1.000000 0.000000 0.000000
vn -1.000000 0.000000 0.000000
vn 0.000000 1.000000 0.000000
vn 0.000000 1.000000 0.000000
vn 0.000000 1.000000 0.000000
vn 0.000000 1.000000 0.000000
vn 1.000000 0.000000 0.000000
vn 1.000000 0.000000 0.000000
vn 1.000000 0.000000 0.000000
vn 1.000000 0.000000 0.000000
vn 0.000000 0.000000 1.000000
vn 0.000000 0.000000 1.000000
vn 0.000000 0.000000 1.000000
vn 0.000000 0.000000 1.000000
vn -1.000000 0.000000 0.000000
vn -1.000000 0.000000 0.000000
vn -1.000000 0.000000 0.000000
vn -1.000000 0.000000 0.000000
vn 0.000000 0.000000 -1.000000
vn 0.000000 0.000000 -1.000000
vn 0.000000 0.000000 -1.000000
vn 0.000000 0.000000 -1.000000
vn 1.000000 0.000000 0.000000
vn 1.000000 0.000000 0.000000
vn 1.000000 0.000000 0.000000
vn 1.000000 0.000000 0.000000
vn 0.000000 1.000000 0.000000
vn 0.000000 1.000000 0.000000
vn 0.000000 1.000000 0.000000
vn 0.000000 1.000000 0.000000
vn 0.000000 0.000000 1.000000
vn 0.000000 0.000000 1.000000
vn 0.000000 0.000000 1.000000
vn 0.000000 0.000000 1.000000
vn 0.000000 -1.000000 0.000000
vn 0.000000 -1.000000 0.000000
vn 0.000000 -1.000000 0.000000
vn 0.000000 -1.000000 0.000000
vn 0.000000 0.000000 -1.000000
vn 0.000000 0.000000 -1.000000
vn 0.000000 0.000000 -1.000000
vn 0.000000 0.000000 -1.000000
vn 0.000000 1.000000 0.000000
vn 0.000000 1.000000 0.000000
vn 0.000000 1.000000 0.000000
vn 0.000000 1.000000 0.000000
vn 0.000000 0.000000 -1.000000
vn 0.000000 0.000000 -1.000000
vn 0.000000 0.000000 -1.000000
vn 0.000000 0.000000 -1.000000
vn 0.000000 -1.000000 0.000000
vn 0.000000 -1.000000 0.000000
vn 0.000000 -1.000000 0.000000
vn 0.000000 -1.000000 0.000000
vn 0.000000 0.000000 1.000000
vn 0.000000 0.000000 1.000000
vn 0.000000 0.000000 1.000000
vn 0.000000 0.000000 1.000000
s off
g pCube96
usemtl initialShadingGroup
f 33/1/1 34/2/2 35/3/3 36/4/4
f 37/5/5 38/6/6 39/7/7 40/8/8
f 41/9/9 42/10/10 43/11/11 44/12/12
f 45/13/13 46/14/14 47/15/15 48/16/16
f 50/17/17 49/18/18 51/19/19 52/20/20
f 53/21/21 54/22/22 55/23/23 56/24/24
f 1/63/25 2/60/26 10/27/27 9/28/28
f 2/60/29 4/69/30 11/30/31 10/27/32
f 4/69/33 3/72/34 12/32/35 11/30/36
f 3/72/37 1/63/38 9/28/39 12/32/40
s 1
f 3/71/41 4/70/42 14/33/43 13/34/44
f 4/70/45 6/65/46 15/36/47 14/33/48
f 6/65/46 5/68/49 16/38/50 15/36/47
f 5/68/49 3/71/41 13/34/44 16/38/50
s 3
f 5/67/51 6/66/52 18/39/53 17/40/54
f 6/66/52 8/57/55 19/42/56 18/39/53
f 8/57/55 7/62/57 20/44/58 19/42/56
f 7/62/57 5/67/51 17/40/54 20/44/58
s 4
f 7/61/59 8/58/60 22/45/61 21/46/62
f 8/58/60 2/59/63 23/47/64 22/45/61
f 2/59/63 1/64/65 24/48/66 23/47/64
f 1/64/65 7/61/59 21/46/62 24/48/66
s 5
f 2/26/67 8/41/68 25/49/69 26/50/70
f 8/41/68 6/35/71 27/51/72 25/49/69
f 6/35/71 4/29/73 28/52/74 27/51/72
f 4/29/73 2/26/67 26/50/70 28/52/74
s 6
f 7/43/75 1/25/76 30/53/77 29/54/78
f 1/25/76 3/31/79 31/55/80 30/53/77
f 3/31/79 5/37/81 32/56/82 31/55/80
f 5/37/81 7/43/75 29/54/78 32/56/82
s off
f 9/28/83 10/27/84 34/2/85 33/1/86
f 10/27/87 11/30/88 35/3/89 34/2/90
f 11/30/91 12/32/92 36/4/93 35/3/94
f 12/32/95 9/28/96 33/1/97 36/4/98
f 13/34/99 14/33/100 38/6/101 37/5/102
f 14/33/103 15/36/104 39/7/105 38/6/106
f 15/36/107 16/38/108 40/8/109 39/7/110
f 16/38/111 13/34/112 37/5/113 40/8/114
f 17/40/115 18/39/116 42/10/117 41/9/118
f 18/39/119 19/42/120 43/11/121 42/10/122
f 19/42/123 20/44/124 44/12/125 43/11/126
f 20/44/127 17/40/128 41/9/129 44/12/130
f 21/46/131 22/45/132 46/14/133 45/13/134
f 22/45/135 23/47/136 47/15/137 46/14/138
f 23/47/139 24/48/140 48/16/141 47/15/142
f 24/48/143 21/46/144 45/13/145 48/16/146
f 26/50/147 25/49/148 49/18/149 50/17/150
f 25/49/151 27/51/152 51/19/153 49/18/154
f 27/51/155 28/52/156 52/20/157 51/19/158
f 28/52/159 26/50/160 50/17/161 52/20/162
f 29/54/163 30/53/164 54/22/165 53/21/166
f 30/53/167 31/55/168 55/23/169 54/22/170
f 31/55/171 32/56/172 56/24/173 55/23/174
f 32/56/175 29/54/176 53/21/177 56/24/178
