# This file uses centimeters as units for non-parametric coordinates.

mtllib test_low.mtl
g default
v -41.579136 0.286842 114.953972
v 41.579136 0.286842 114.953972
v -41.579136 0.286842 31.795700
v 41.579136 0.286842 31.795700
vt 1.000000 0.000157
vt 0.999843 1.000000
vt 0.000000 0.999843
vt 0.000157 0.000000
vn 0.000000 1.000000 0.000000
vn 0.000000 1.000000 0.000000
vn 0.000000 1.000000 0.000000
vn 0.000000 1.000000 0.000000
s off
g pPlane1
usemtl initialShadingGroup
f 1/1/1 2/2/2 4/3/3 3/4/4
