# This file uses centimeters as units for non-parametric coordinates.

mtllib SM_CascadeWaterCircle.mtl
g default
v 19.166275 0.000000 -3.035630
v 18.455429 0.000000 -5.996522
v 17.290146 0.000000 -8.809760
v 15.699127 0.000000 -11.406071
v 13.721541 0.000000 -13.721527
v 11.406085 0.000000 -15.699114
v 8.809775 0.000000 -17.290134
v 5.996538 0.000000 -18.455418
v 3.035646 0.000000 -19.166264
v 0.000007 0.000000 -19.405174
v -3.035631 0.000000 -19.166264
v -5.996522 0.000000 -18.455418
v -8.809759 0.000000 -17.290136
v -11.406071 0.000000 -15.699117
v -13.721524 0.000000 -13.721532
v -15.699112 0.000000 -11.406076
v -17.290133 0.000000 -8.809765
v -18.455416 0.000000 -5.996529
v -19.166262 0.000000 -3.035638
v -19.405170 0.000000 0.000001
v -19.166262 0.000000 3.035638
v -18.455416 0.000000 5.996530
v -17.290134 0.000000 8.809766
v -15.699114 0.000000 11.406075
v -13.721529 0.000000 13.721529
v -11.406074 0.000000 15.699117
v -8.809764 0.000000 17.290138
v -5.996527 0.000000 18.455421
v -3.035637 0.000000 19.166265
v 0.000001 0.000000 19.405174
v 3.035639 0.000000 19.166265
v 5.996530 0.000000 18.455421
v 8.809766 0.000000 17.290138
v 11.406075 0.000000 15.699119
v 13.721529 0.000000 13.721531
v 15.699115 0.000000 11.406077
v 17.290134 0.000000 8.809768
v 18.455414 0.000000 5.996531
v 19.166262 0.000000 3.035641
v 19.405170 0.000000 0.000004
v 0.000003 0.000000 0.000004
vt 0.881356 0.825750
vt 0.825703 0.881397
vt 0.500000 0.500000
vt 0.762029 0.927653
vt 0.691904 0.963378
vt 0.617053 0.987693
vt 0.539319 1.000000
vt 0.460618 0.999995
vt 0.382886 0.987679
vt 0.308039 0.963354
vt 0.237917 0.927620
vt 0.174250 0.881356
vt 0.118603 0.825703
vt 0.072347 0.762029
vt 0.036622 0.691903
vt 0.012307 0.617052
vt 0.000000 0.539319
vt 0.000005 0.460618
vt 0.012321 0.382886
vt 0.036646 0.308038
vt 0.072380 0.237917
vt 0.118644 0.174250
vt 0.174297 0.118603
vt 0.237971 0.072347
vt 0.308097 0.036622
vt 0.382948 0.012307
vt 0.460681 0.000000
vt 0.539382 0.000005
vt 0.617114 0.012321
vt 0.691961 0.036646
vt 0.762083 0.072380
vt 0.825750 0.118644
vt 0.881397 0.174297
vt 0.927653 0.237971
vt 0.963378 0.308097
vt 0.987693 0.382948
vt 1.000000 0.460681
vt 0.999995 0.539382
vt 0.987678 0.617114
vt 0.963354 0.691961
vt 0.927620 0.762083
vn 0.000000 1.000000 0.000000
vn 0.000000 1.000000 0.000000
vn 0.000000 1.000000 0.000000
vn 0.000000 1.000000 0.000000
vn 0.000000 1.000000 0.000000
vn 0.000000 1.000000 0.000000
vn 0.000000 1.000000 0.000000
vn 0.000000 1.000000 0.000000
vn 0.000000 1.000000 0.000000
vn 0.000000 1.000000 0.000000
vn 0.000000 1.000000 0.000000
vn 0.000000 1.000000 0.000000
vn 0.000000 1.000000 0.000000
vn 0.000000 1.000000 0.000000
vn 0.000000 1.000000 0.000000
vn 0.000000 1.000000 0.000000
vn 0.000000 1.000000 0.000000
vn 0.000000 1.000000 0.000000
vn 0.000000 1.000000 0.000000
vn 0.000000 1.000000 0.000000
vn 0.000000 1.000000 0.000000
vn 0.000000 1.000000 0.000000
vn 0.000000 1.000000 0.000000
vn 0.000000 1.000000 0.000000
vn 0.000000 1.000000 0.000000
vn 0.000000 1.000000 0.000000
vn 0.000000 1.000000 0.000000
vn 0.000000 1.000000 0.000000
vn 0.000000 1.000000 0.000000
vn 0.000000 1.000000 0.000000
vn 0.000000 1.000000 0.000000
vn 0.000000 1.000000 0.000000
vn 0.000000 1.000000 0.000000
vn 0.000000 1.000000 0.000000
vn 0.000000 1.000000 0.000000
vn 0.000000 1.000000 0.000000
vn 0.000000 1.000000 0.000000
vn 0.000000 1.000000 0.000000
vn 0.000000 1.000000 0.000000
vn 0.000000 1.000000 0.000000
vn 0.000000 1.000000 0.000000
s 1
g pCylinder5
usemtl initialShadingGroup
f 1/1/1 2/2/2 41/3/3
f 2/2/2 3/4/4 41/3/3
f 3/4/4 4/5/5 41/3/3
f 4/5/5 5/6/6 41/3/3
f 5/6/6 6/7/7 41/3/3
f 6/7/7 7/8/8 41/3/3
f 7/8/8 8/9/9 41/3/3
f 8/9/9 9/10/10 41/3/3
f 9/10/10 10/11/11 41/3/3
f 10/11/11 11/12/12 41/3/3
f 11/12/12 12/13/13 41/3/3
f 12/13/13 13/14/14 41/3/3
f 13/14/14 14/15/15 41/3/3
f 14/15/15 15/16/16 41/3/3
f 15/16/16 16/17/17 41/3/3
f 16/17/17 17/18/18 41/3/3
f 17/18/18 18/19/19 41/3/3
f 18/19/19 19/20/20 41/3/3
f 19/20/20 20/21/21 41/3/3
f 20/21/21 21/22/22 41/3/3
f 21/22/22 22/23/23 41/3/3
f 22/23/23 23/24/24 41/3/3
f 23/24/24 24/25/25 41/3/3
f 24/25/25 25/26/26 41/3/3
f 25/26/26 26/27/27 41/3/3
f 26/27/27 27/28/28 41/3/3
f 27/28/28 28/29/29 41/3/3
f 28/29/29 29/30/30 41/3/3
f 29/30/30 30/31/31 41/3/3
f 30/31/31 31/32/32 41/3/3
f 31/32/32 32/33/33 41/3/3
f 32/33/33 33/34/34 41/3/3
f 33/34/34 34/35/35 41/3/3
f 34/35/35 35/36/36 41/3/3
f 35/36/36 36/37/37 41/3/3
f 36/37/37 37/38/38 41/3/3
f 37/38/38 38/39/39 41/3/3
f 38/39/39 39/40/40 41/3/3
f 39/40/40 40/41/41 41/3/3
f 40/41/41 1/1/1 41/3/3
